<svg xmlns="http://www.w3.org/2000/svg" viewBox="0 0 100 125"><path d="M50.013 18.122a17.738 17.738 0 0 0-15.047 8.276 2.813 2.813 0 0 0 4.749 3.014 12.141 12.141 0 0 1 10.298-5.666c4.181 0 8.022 2.105 10.277 5.631a2.812 2.812 0 1 0 4.739-3.031 17.75 17.75 0 0 0-15.016-8.224z"/><path d="M27.302 25.091a2.937 2.937 0 0 0 4.058-.916c4.07-6.445 11.048-10.293 18.663-10.293 7.583 0 14.545 3.822 18.623 10.225a2.942 2.942 0 0 0 4.961-3.161C68.444 12.839 59.627 8 50.024 8c-9.646 0-18.481 4.873-23.638 13.035a2.94 2.94 0 0 0 .916 4.056zM62 82h-8.043V64h36.039c0-4.977-3.966-9-9-9H53.958v-8.007c0-3 4-5 4.043-11.051.031-4.42-3.582-8-8.001-8-4.418 0-7.962 3.58-8 8-.043 5.051 3.957 8.051 3.957 11.051V55h-26.96c-5.033 0-9 4.023-9 9h35.96v18H38c-2.387 0-5.004 2.316-5.004 5.008L50 92l16.996-4.992C66.997 84.316 64.386 82 62 82z"/><text y="115" font-size="5" font-weight="bold" font-family="'Helvetica Neue', Helvetica, Arial-Unicode, Arial, Sans-serif">Created by David Carrero</text><text y="120" font-size="5" font-weight="bold" font-family="'Helvetica Neue', Helvetica, Arial-Unicode, Arial, Sans-serif">from the Noun Project</text></svg>