<svg xmlns="http://www.w3.org/2000/svg" viewBox="0 0 100 125" fill="#fff"><path d="M41.467 52.469s-8.886-1.238-14.421-1.53c-5.536-.292-11.654-.364-11.945-.583-.291-.218-.364-.947-.655-.801-1.457 2.841-3.205 2.769-4.442 2.112-1.238-.655-1.093-3.059-.437-3.423-.947-.073-1.56-.412-1.967-.729-.655-.51-2.04-1.748-2.549-2.331-.509-.583-.364-1.748 1.093-2.694 1.456-.947 7.138-4.588 11.653-4.37 4.516.218 21.85 6.409 23.889 6.773 2.04.364 9.905 1.894 9.905 1.894s36.926-23.162 38.02-23.745c1.093-.582 1.603-.437 2.477-.291.874.145 3.058 1.165 2.403 1.748-.655.583-31.465 24.764-31.465 24.764s8.086 1.967 10.124 1.967c2.04 0 3.933.146 5.899.948 1.968.8 1.749 1.018 3.06 1.019a7.67 7.67 0 0 1 2.331.364l.146 1.311s4.007 2.187 4.517 2.478c.146 1.165-.511 1.819-.511 1.819l-2.477.583 9.104 6.92s-5.899-.073-6.992-.729c-1.092-.655-6.118-4.952-6.118-4.952l-.364 7.575s-1.748-.074-2.913-.365-1.748-.509-1.748-.509l-.364.072-4.662 9.614-6.555-1.239 8.521-16.824s-8.011-1.674-12.018-2.693c-4.006-1.021-6.263-1.238-6.555-1.312l-.583-.146s-31.61 13.838-34.014 13.329l-2.84-.875.146-.728c0 .001 21.486-12.018 23.307-14.421z"/><text y="115" fill="rgba(0,0,0,0)" font-size="5" font-weight="bold" font-family="'Helvetica Neue', Helvetica, Arial-Unicode, Arial, Sans-serif">Created by Blaise Sewell</text><text y="120" fill="rgba(0,0,0,0)" font-size="5" font-weight="bold" font-family="'Helvetica Neue', Helvetica, Arial-Unicode, Arial, Sans-serif">from the Noun Project</text></svg>