<svg xmlns="http://www.w3.org/2000/svg" viewBox="0 0 100 125"><path d="M50.001 95.669a6.063 6.063 0 0 1-4.316-1.788L6.122 54.316A6.061 6.061 0 0 1 4.333 50c0-1.631.635-3.164 1.789-4.316L45.686 6.119a6.066 6.066 0 0 1 4.316-1.787c1.63 0 3.163.635 4.316 1.787l39.564 39.566a6.112 6.112 0 0 1 0 8.632L54.318 93.881a6.065 6.065 0 0 1-4.317 1.788zm.001-89.631a4.372 4.372 0 0 0-3.11 1.288L7.328 46.89c-.831.831-1.289 1.935-1.289 3.11s.458 2.279 1.289 3.11l39.564 39.564a4.372 4.372 0 0 0 3.109 1.288 4.378 4.378 0 0 0 3.111-1.288L92.677 53.11a4.405 4.405 0 0 0 0-6.22L53.111 7.325a4.367 4.367 0 0 0-3.109-1.287z"/><path d="M50.86 33.31s2.576-.193 4.173-.175 3.356.109 3.444.052c.087-.057.122-.266.203-.218.366.843.87.854 1.237.689.368-.166.371-.859.188-.976.274-.003.456-.089.579-.173.198-.134.618-.465.775-.623.157-.158.137-.496-.265-.794-.401-.299-1.967-1.45-3.269-1.471-1.302-.02-6.398 1.441-6.991 1.508-.593.067-2.882.362-2.882.362s-10.187-7.336-10.491-7.523c-.303-.187-.453-.155-.707-.129-.253.026-.9.279-.722.458.177.18 8.587 7.696 8.587 7.696s-2.36.417-2.946.379c-.586-.038-1.133-.03-1.713.164s-.521.261-.898.237c-.376-.024-.676.062-.676.062l-.066.375s-1.191.554-1.343.628a.654.654 0 0 0 .113.533l.701.213-2.744 1.821s1.697.088 2.023-.081 1.85-1.311 1.85-1.311l-.035 2.184s.504.011.844-.051.512-.114.512-.114l.103.027 1.164 2.849 1.907-.235-2.14-4.992s2.333-.333 3.503-.553c1.17-.219 1.823-.241 1.908-.256l.17-.031s8.831 4.559 9.531 4.457l.832-.199-.028-.212c.003-.004-5.951-3.853-6.431-4.577zM45.896 50.219a2.77 2.77 0 1 0-5.452.693l-.455.342-.175-.818-1.692.992.292.643-.735.326a.547.547 0 0 0 .144 1.073.533.533 0 0 0 .241-.059l.992-.466.35.934 1.867-1.226-.758-.759.268-.2a2.768 2.768 0 0 0 5.113-1.475zM33.425 64.016c0 .469.281.87.683 1.05.004.008.006.019.013.021.174.058 4.656 1.496 5.939 1.846s2.101-1.399 2.101-1.399.583-.992.875-1.517c.292-.525.875-.117 1.05.116.175.233.583 1.458.992 2.101.408.642.292 1.517.175 2.566-.117 1.051-.292 2.917-.292 3.968 0 .3.01.528.026.705-.004.037-.012.072-.012.111a1.207 1.207 0 1 0 2.405.16c.005-.015.015-.028.016-.044.044-.525.481-6.592.249-7.176-.233-.583-1.109-2.566-1.109-2.566h.7s-.467-1.459-.875-2.217c-.408-.759-.992-2.101-.7-2.275.292-.175.525-2.042.816-2.158.292-.117 1.167.524 1.984 1.107.816.584 1.517.292 1.75.176.223-.111 1.37-.956 2.032-1.692a.986.986 0 0 0 .36-.759.992.992 0 0 0-.992-.992.984.984 0 0 0-.751.352c-.329.336-.745.971-1.057 1.283-.467.467-.817-.059-1.692-.525s-1.925-1.225-2.625-1.634c-.7-.408-1.05-.816-2.566-.816 0 0-2.976.467-4.376.991-1.4.525-1.4 1.167-1.983 2.393-.118.249-.172.428-.187.559-.023.093-.04.187-.04.286 0 .642.521 1.163 1.163 1.163.298 0 .566-.115.772-.3.102-.056.191-.168.265-.349.053-.105.089-.218.107-.338.381-1.396.588-1.774 1.885-1.604 0 .292.583 1.75.817 2.392s.175.934-.233 1.575c-.408.642-1.692 2.976-1.692 2.976l.7.116c0 .525-.233.934-.758.759l-4.257-1.429a1.144 1.144 0 0 0-.527-.133 1.149 1.149 0 0 0-1.151 1.151zm5.352-3.617l-3.967-1.226-1.809 2.159 5.718 1.983.058-2.916z"/><path d="M70.724 52.8a2.964 2.964 0 1 0 0-5.928 2.964 2.964 0 0 0 0 5.928zm6.669 1.531c-.127 0-.25.019-.367.049-.758.103-2.502.343-3.338.495-1.087.197-1.68.296-2.175 0-.435-.262-2.944-1.905-3.531-2.29a.541.541 0 0 1-.025-.018l-.099-.064a2.04 2.04 0 0 0-.559-.235c-.793-.263-1.746-.239-2.757.119-1.389.491-7.721 1.341-9.15 1.854a1.43 1.43 0 0 0-1.119 1.146 1.434 1.434 0 0 0 1.776 1.64c.689-.104 4.085-.525 6.249-.814-1.747 2.804-4.341 7.177-4.716 7.852-.493.889-.394.986-1.777.493-1.183-.422-3.655-1.591-4.531-1.89a1.433 1.433 0 0 0-1.143 2.625c1.316.759 4.395 2.19 5.673 2.921 1.384.79 2.669.888 3.36-.1s2.173-3.26 2.173-3.26 1.186 3.062.889 3.557c-.271.454-2.425 5.261-2.697 6.346a1.434 1.434 0 0 0 2.545 1.303c.482-.561.877-1.423 1.536-2.61.988-1.778 1.68-2.964 2.075-3.754s.691-.493 0-2.766c-.692-2.272-1.482-3.26-.692-4.545.791-1.285 1.978-2.865 1.978-2.865l2.37-2.668s1.384 1.285 3.458.988c1.658-.236 3.594-.426 4.607-.643a1.434 1.434 0 0 0-.013-2.866z"/><text y="115" font-size="5" font-weight="bold" font-family="'Helvetica Neue', Helvetica, Arial-Unicode, Arial, Sans-serif">Created by Blaise Sewell</text><text y="120" font-size="5" font-weight="bold" font-family="'Helvetica Neue', Helvetica, Arial-Unicode, Arial, Sans-serif">from the Noun Project</text></svg>