<svg xmlns="http://www.w3.org/2000/svg" viewBox="0 0 100 125"><path d="M61.2 66.5c-.6-6.8-6-12.2-12.9-12.8v-5.2h-2.6v5.2c-6.8.6-12.2 6-12.9 12.8H21.2v2.6h11.7c.6 6.8 6 12.2 12.9 12.9v5.2h2.6V82c6.8-.6 12.2-6 12.9-12.9H73v-2.6H61.2zM45.7 79.4c-5.4-.6-9.7-4.9-10.3-10.3h10.3v10.3zm0-12.9H35.5c.6-5.4 4.9-9.7 10.3-10.3v10.3zm2.6 12.9V69.1h10.3c-.6 5.4-4.9 9.7-10.3 10.3zm0-12.9V56.3c5.4.6 9.7 4.9 10.3 10.3H48.3z"/><path d="M94.1 22.5L84.2 10c-.3-.4-.9-.6-1.4-.4-1.3.5-28.5 9.8-41.1 14.5l7-7.9c.3-.4.4-.9.2-1.3-.2-.5-.6-.8-1-.8l-6.7-.8c-.4-.1-.8.1-1.1.4L27.6 26.2c-4.1.4-8.8 1.3-12.2 3.4-5.2 3.2-9.5 10.3-9.7 16.1 0 .7.5 1.3 1.2 1.3.1 0 2 .2 4.3.2 1.1.7 3.5 2 6.1 2 .7 0 1.4-.1 2.1-.3 2.2-.7 4-2.4 5.3-5.1 2.6-1 5.6-2.3 9-3.8l44.8 9.6h.3c.5 0 .9-.3 1.1-.7.3-.5.2-1.1-.2-1.5l-6.5-6.2c-.1-.1-.3-.2-.5-.3l-22.6-7.8c8.1-3.5 16.2-6.9 22.1-9.5l-.2 1.8v.5c.1.5.5.9 1 1l5.2 1.1h.3c.6 0 1.1-.4 1.3-1l1.5-5.7 4.6 5.7c.4.5 1 .6 1.6.3l6.3-3c.3-.2.6-.5.7-.9-.1-.2-.2-.6-.4-.9zm-62.6 3.4l10-10.1 3.6.4-8.5 9.6-.7 1c0 .1-3.4-.2-5.5.2l1.1-1.1zM19 47.4c-1.4.4-2.8.2-4.1-.2 1-.1 1.8-.2 2.5-.4.5-.1 2.2-.8 4.8-1.9-.8 1.3-1.9 2.1-3.2 2.5zm59.7-26.5l-1.1 4.4-2.7-.6.7-3.3 3.5-1.9-.4 1.4zm8.5 3.8l-5.6-6.9-.3-.3-.1-.1c-.1-.1-.2-.1-.3-.1-.1 0-.2-.1-.3-.1h-.2c-.1 0-.3.1-.4.1-2.7 1.3-18.3 8.1-33.3 14.5L42 30.2c-.7-.2-1.4.1-1.6.8-.1.3-.1.7.1 1 .1.3.4.5.7.6l2.1.7 3.6 1.3 25 8.7 3 2.9L38 38.4l-4.4-.9-2.2-.5-1.5-.3c-.7-.2-1.4.3-1.5 1-.1.7.3 1.4 1 1.5h.1c-6.8 2.9-11.8 4.9-12.6 5.1-1 .3-2.6.4-4.6.4-1.2 0-2.3 0-3.2-.1-.2 0-.5-.4-.5-.6.8-4.6 4.2-9.8 8.2-12.2 4.8-2.9 12.7-3.4 16.9-3.4 2 0 3.1.1 3.1.1s.9-.1 1-.2c6.6-2.9 39.2-14.1 44.9-16L91 22.8l-3.8 1.9z"/><text y="115" font-size="5" font-weight="bold" font-family="'Helvetica Neue', Helvetica, Arial-Unicode, Arial, Sans-serif">Created by Dan Hetteix</text><text y="120" font-size="5" font-weight="bold" font-family="'Helvetica Neue', Helvetica, Arial-Unicode, Arial, Sans-serif">from the Noun Project</text></svg>