<svg xmlns="http://www.w3.org/2000/svg" viewBox="0 0 100 125"><path d="M48.208 76.496l-18.8-.452v-2.381l18.519-4.206s-.617-10.899-.617-12.277c0-.112-.596 2.47-.596 2.47L0 55.946v-4.14l47.237-3.122c0-14.559-1.815-15.876-1.815-21.408 0-2.835 2.687-7.845 4.578-7.845 1.892 0 4.578 5.01 4.578 7.845 0 5.532-1.815 6.85-1.815 21.408L100 51.807v4.14L53.286 59.65s-.596-2.582-.596-2.47c0 1.378-.617 12.277-.617 12.277l18.52 4.206v2.381l-18.8.452-.318-2.021s-.157 2.593-.554 4.472c1.365-.087 3.068-.194 3.25-.207.45-.032.85.21.893.541.044.33-.305.744-1.107.61a243.54 243.54 0 0 0-4.092-.665c-.663-.1-.871-.71-.899-.871-.313-1.787-.44-3.88-.44-3.88l-.318 2.021zm1.64 3.398c-.974-.114-2.26-.321-3.958-.651-.799-.154-1.151.28-1.108.61.043.331.443.573.893.541.2-.014 2.228-.143 3.634-.231.19.603.418 1.005.691 1.005.207 0 .388-.23.546-.603.035-.111.259-.56-.698-.671z"/><text y="115" font-size="5" font-weight="bold" font-family="'Helvetica Neue', Helvetica, Arial-Unicode, Arial, Sans-serif">Created by Anthony Lui</text><text y="120" font-size="5" font-weight="bold" font-family="'Helvetica Neue', Helvetica, Arial-Unicode, Arial, Sans-serif">from the Noun Project</text></svg>