<svg xmlns="http://www.w3.org/2000/svg" viewBox="0 0 100 125"><path d="M-81.785 43.669c.076.042.155.08.229.125.198.122.438.212.58.381a.855.855 0 0 1 .185.58c-.024.231.013.292.237.306.782.05 1.545-.002 2.27-.333a.954.954 0 0 1 .345-.067c1.643-.067 3.288-.126 4.933-.193s28.169-1.179 29.834-1.246c.054-.002.11.007.173.012-.339.354-.687.68-.988 1.044-.294.354-.652.463-1.096.491-2.15.138-29.396 2.095-30.498 2.18-.061.004-.118.037-.254.081.229.129.394.22.556.315.491.29.984.575 1.219 1.143.029.074.114.132.184.184.509.382 1.016.768 1.535 1.135a.516.516 0 0 0 .366.074c.834-.172 1.542.053 2.165.621a.818.818 0 0 0 .438.192c.442.05.793.195 1.03.616.123.218.361.379.568.541.614.484 1.253.939 1.855 1.437.323.267.509.635.566 1.067.014.099.126.207.221.267.927.579 1.809 1.213 2.52 2.05.226.266.431.566.567.884.442 1.032-.241 1.995-1.369 1.96a3.866 3.866 0 0 1-1.923-.567c-.572-.354-1.107-.77-1.658-1.156-.082-.058-.167-.11-.306-.204.023.333.055.592.058.852.004.875-.44 1.225-1.303 1.03-.141-.031-.276-.074-.497-.136.08.18.124.301.185.412 1.015 1.877 2.031 3.754 2.815 5.743.168.425.253.881.391 1.319a.82.82 0 0 0 .192.31c.595.598 1.229 1.16 1.788 1.788.534.598.832 1.326.747 2.153-.043.417-.296.714-.668.909-.518.271-1.083.354-1.649.344-.242-.005-.49-.178-.718-.307-.224-.126-.369-.101-.593.054-.919.628-1.865 1.219-2.809 1.812-.168.106-.27.213-.308.422-.077.422-.268.793-.69 1.04.242.275.461.521.678.771.216.249.188.518-.078.758-.238.216-.521.197-.749-.056a48.57 48.57 0 0 1-.947-1.083.718.718 0 0 0-.511-.272 1.365 1.365 0 0 1-.678-.313 16.208 16.208 0 0 1-1.125-1.115c-.175-.185-.343-.285-.62-.302-1.235-.073-2.312-.595-3.247-1.366-1.793-1.479-3.324-3.208-4.687-5.087-.109-.15-.223-.231-.416-.154-1.107.442-2.244.822-3.319 1.331-.921.438-1.637.225-2.326-.408-.059-.055-.131-.097-.196-.144-.024.018-.05.035-.075.052.046.106.081.218.137.316.423.753.822 1.516 1.004 2.37.026.122.035.25.051.376.112.874-.563 1.223-1.138 1.268-.959.077-1.761-.334-2.399-.979a47.227 47.227 0 0 1-2.786-3.065c-.548-.659-.969-1.424-1.448-2.139-.075-.112-.156-.219-.271-.379-.08.152-1.09 2.699-1.551 3.864-.04.101-.146.229-.239.244-.643.103-1.291.179-1.977.269.056-.125.092-.214.135-.299l5.6-11.218c.292-.586.597-1.167.873-1.762a.535.535 0 0 0-.007-.421c-1.133-2.016-2.261-4.031-3.02-6.225-.089-.257-.235-.17-.391-.108-1.894.742-31.644 12.401-36.268 14.219-.044.018-.023-.423.021-.651.117-.596.47-.879 1.045-1.092 3.531-1.304 31.363-11.868 34.794-13.161.257-.097.317-.189.222-.463-.434-1.256-.704-2.545-.651-3.884.007-.185-.055-.252-.245-.274-1.633-.188-22.696-2.702-24.135-2.866-.364-.041-.728-.093-1.177-.152.155-.169.25-.301.372-.399.556-.447 1.152-.643 1.9-.517 1.667.28 22.259 3.063 22.558 3.113.155.025.237-.026.281-.175.153-.516.334-1.024.456-1.547.044-.191-.014-.429-.088-.621a11.962 11.962 0 0 0-.507-1.09c-1.155-2.263-2.557-4.376-3.967-6.484-.017-.024-.035-.047-.051-.071-.216-.324-.452-.581-.906-.416-.148.054-.331.031-.495.017-.381-.034-.48-.194-.361-.55.027-.081.049-.164.097-.32-.182.047-.308.069-.425.113-2.633 1.002-5.265 2.006-7.898 3.01-.566.216-1.135.428-1.703.639-.249.092-.409.004-.65-.373.15-.067.294-.137.441-.198 2.098-.87 4.196-1.74 6.294-2.605 1.357-.56 2.716-1.113 4.074-1.669.372-.152.366-.151.206-.511a2.106 2.106 0 0 1-.18-.525c-.019-.131.043-.274.069-.413.144.03.327.016.425.1.212.182.398.402.565.628.254.345.687.513 1.099.369.487-.17.97-.354 1.451-.54.208-.08.245-.235.144-.427-.154-.293-.314-.585-.468-.878a8966.212 8966.212 0 0 1-3.211-6.108c-.042-.081-.075-.167-.112-.25l.064-.031c.066.103.136.205.198.311 1.25 2.105 2.498 4.21 3.749 6.314.054.091.114.192.198.25.504.348.594.855.608 1.417.005.234.072.485.177.694.641 1.288 1.301 2.565 1.954 3.847a.624.624 0 0 1 .085.317c-.048-.08-.101-.159-.145-.242-.736-1.37-1.473-2.741-2.208-4.112-.179-.333-.201-.363-.537-.172-.44.249-.859.536-1.278.82-.176.119-.199.268-.073.474 1.029 1.678 2.041 3.366 3.066 5.045a211.075 211.075 0 0 0 1.961 3.138c.069.109.211.193.336.24.643.242 1.849.465 1.937.49 1.577.459 3.153.92 4.734 1.368a.645.645 0 0 0 .413-.034c.685-.312 1.345-.682 2.108-.784.072-.01.16-.109.191-.187a5.38 5.38 0 0 0 .364-1.587c.041-.541.274-1.071.452-1.597.381-1.13.793-2.25 1.172-3.381.923-2.755 1.833-5.515 2.75-8.272.397-1.196.796-2.392 1.195-3.587.039-.118.087-.234.128-.349.435.101.437.101.366.459-.579 2.916-1.16 5.832-1.741 8.748-.406 2.044-.809 4.09-1.227 6.132a.775.775 0 0 1-.246.406c-.669.574-1.329 1.162-2.039 1.683-.479.351-.527.851-.695 1.37.197.026.359.045.52.07.43.066.823.188 1.018.637.024.057.11.116.173.123.293.032.586.042.879.067.164.014.227-.051.227-.218 0-.967.501-1.185 1.312-.709.244.143.418.14.663.003 2.901-1.61 22.046-12.142 24.573-13.518a.68.68 0 0 1 .385-.077c.345.046.684.124 1.125.208-.324.293-.558.579-.855.763-1.814 1.124-15.676 9.512-17.009 10.351a4.766 4.766 0 0 1-1.676.658c-1.16.224-2.318.463-3.47.733-.354.083-.686.282-1.02.44-.646.306-1.288.621-1.93.935-.108.053-.228.081-.185.272.069.316-.043.497-.357.558-.265.052-.543.044-.815.06-.09.005-.18 0-.27 0l-.023.089z"/><path fill-rule="evenodd" clip-rule="evenodd" d="M62.127 58.946c.148.24.407.392.64.568.206.155.312.295.167.618-.257.578-.511 1.149-.896 1.652-.402.527-.93.885-1.575 1.047-.127.032-.271.011-.407.005-.523-.022-1.032.099-1.547.163-.594.075-1.185.171-1.777.253-.448.062-.898.13-1.346.214-.304.057-.62.078-.931.128-.623.1-1.252.164-1.865.302-.553.125-1.111.222-1.666.333-.728.146-1.451.306-2.186.423-.656.104-1.301.279-1.956.398-.729.133-1.457.284-2.184.429-.379.075-.728-.02-1.081-.041-.327-.021-1.732-.14-2.103-.149-1.188-.029-2.322-.302-3.411-.764-.347-.146-.715-.231-1.056-.396-.144-.069-29.736 4.131-30.218 4.243-.082.02-.202.067-.293-.049-.423-.539-1.3-1.664-1.311-1.694 0 0-.076-.023-.016-.043.433-.142 29.657-3.853 30.178-3.943.253-.042.534.014.76-.165 0-.053-.292-.289-.292-.289a9492.07 9492.07 0 0 0-7.146-3.562c-2.8-1.392-5.602-2.78-8.4-4.173-.207-.103-.447-.151-.609-.323-.125-.131-.091-.112-.091-.112.243-.233.591-.213.875-.351.484-.236.858.104 1.251.27 1.389.586 2.763 1.203 4.145 1.801 1.292.559 2.593 1.096 3.879 1.667 1.186.527 2.477 1.021 3.656 1.565.83.383 2.685 1.115 2.685 1.144v-.087c0-.607.699-1.269 1.1-1.899.105-.165.173-.285.366-.318 1.043-.176 2.028-.516 3.097-.598.594-.046 1.16-.052 1.74.072.747.16 1.246.58 1.416 1.343.027.114-.055.67-.055.67-.021-.139 10.148-10.804 10.998-11.696.077-.082.138-.212.29-.176.421.097.861.11 1.268.309-.236.383-8.023 9.195-9.166 10.519-.133.154-.341.278-.358.519 0 0-.021.007.118.034.178.035.373.025.553-.009.482-.092.973-.115 1.459-.171.407-.045.816-.082 1.224-.129.477-.053.954-.111 1.431-.162.407-.045.817-.084 1.224-.131.229-.027.46-.074.685-.264 1.239-1.045 2.53-2.013 4.217-2.24.505-.067 1.001-.084 1.488.043.775.203 1.429.611 1.895 1.28.101.144.236.176.381.142.691-.168 30.729-7.365 32.438-7.792.1-.024.16.004.235.036 0 0 .063-.056-.005.084-.277.565-.661 1.064-1.022 1.574-.126.178-.381.151-.578.204-1.255.33-30.195 7.674-30.312 7.674z"/><text y="115" font-size="5" font-weight="bold" font-family="'Helvetica Neue', Helvetica, Arial-Unicode, Arial, Sans-serif">Created by Multiply Graphics</text><text y="120" font-size="5" font-weight="bold" font-family="'Helvetica Neue', Helvetica, Arial-Unicode, Arial, Sans-serif">from the Noun Project</text></svg>