<svg xmlns="http://www.w3.org/2000/svg" viewBox="0 0 100 97.221"><path d="M94.444 15.286H36.111C6.945-4.158 0 20.841 0 20.841s3.028 2.258 4.167 2.779c1.188.542 2.778 1.389 5.555 1.389l33.557-.001 16.443 15.27h8.334l-8.223-15.27h29.924l4.688 12.5H100V20.841c0-4.166-1.39-5.555-5.556-5.555z"/><path d="M59.931 12.508L66.666 0h-8.333l-13.47 12.508zM84.722 81.944H100v15.277H84.722zM77.777 84.027a2.084 2.084 0 0 1-2.083-2.083c0-4.978 4.05-9.027 9.027-9.027 1.15 0 2.084.933 2.084 2.083s-.934 2.083-2.084 2.083a4.868 4.868 0 0 0-4.861 4.861c0 1.15-.932 2.083-2.083 2.083zM70.139 80.555a2.084 2.084 0 0 1-2.083-2.083c0-7.275 5.919-13.194 13.194-13.194a2.084 2.084 0 0 1 0 4.166c-4.979 0-9.028 4.05-9.028 9.028 0 1.15-.933 2.083-2.083 2.083z"/><path d="M62.5 77.083A2.084 2.084 0 0 1 60.416 75c0-9.573 7.788-17.361 17.361-17.361a2.084 2.084 0 0 1 0 4.167c-7.275 0-13.194 5.919-13.194 13.194 0 1.15-.933 2.083-2.083 2.083zM77.777 27.786v9.722h5.556l3.646-9.722z"/></svg>